<svg width="1920" height="1081" viewBox="0 0 1920 1081" fill="none" xmlns="http://www.w3.org/2000/svg">
    <rect x="-3" y="1" width="1925.99" height="1080" fill="url(#paint0_linear_18270_7320)"/>
    <path fill-rule="evenodd" clip-rule="evenodd"
          d="M1596.65 618.104C1599.65 618.104 1602.07 615.677 1602.07 612.683L1602.07 495.441C1602.07 492.448 1599.65 490.021 1596.65 490.021L1527.62 490.021L1495.5 458L1495.5 490.021L1479.01 490.021C1476.02 490.021 1473.59 492.448 1473.59 495.441L1473.59 612.683C1473.59 615.677 1476.02 618.104 1479.01 618.104L1596.65 618.104Z"
          fill="#FF1A4C"/>
    <path
        d="M1619.19 674.979L1621.21 672.948L1620.37 672.111H1619.19V674.979ZM1651.31 707.001L1649.29 709.032L1654.18 713.909V707.001H1651.31ZM1651.31 674.979V672.111H1648.44V674.979H1651.31ZM1547.61 552.317C1547.61 550.907 1548.75 549.764 1550.16 549.764V544.029C1545.58 544.029 1541.87 547.74 1541.87 552.317H1547.61ZM1547.61 669.559V552.317H1541.87V669.559H1547.61ZM1550.16 672.111C1548.75 672.111 1547.61 670.969 1547.61 669.559H1541.87C1541.87 674.136 1545.58 677.847 1550.16 677.847V672.111ZM1619.19 672.111H1550.16V677.847H1619.19V672.111ZM1617.16 677.01L1649.29 709.032L1653.34 704.97L1621.21 672.948L1617.16 677.01ZM1654.18 707.001V674.979H1648.44V707.001H1654.18ZM1667.8 672.111H1651.31V677.847H1667.8V672.111ZM1670.36 669.559C1670.36 670.969 1669.21 672.111 1667.8 672.111V677.847C1672.38 677.847 1676.09 674.136 1676.09 669.559H1670.36ZM1670.36 552.317V669.559H1676.09V552.317H1670.36ZM1667.8 549.764C1669.21 549.764 1670.36 550.907 1670.36 552.317H1676.09C1676.09 547.74 1672.38 544.029 1667.8 544.029V549.764ZM1550.16 549.764H1667.8V544.029H1550.16V549.764Z"
        fill="white" fill-opacity="0.8"/>
    <rect x="1777.54" y="897.141" width="10.6949" height="26.5407" rx="5.34745" fill="white"/>
    <rect x="1801.88" y="877.631" width="10.6949" height="65.5578" rx="5.34745" fill="white"/>
    <rect x="1851.77" y="886.53" width="8.77682" height="47.9875" rx="4.38841" stroke="white" stroke-width="1.91807"/>
    <rect x="1828.56" y="863.959" width="8.77682" height="92.6757" rx="4.38841" stroke="white" stroke-width="1.91807"/>
    <path
        d="M1142.17 768.052C1135.08 765.124 1130.14 760.672 1127.35 754.697C1124.56 748.722 1124.51 742.48 1127.22 735.971C1130.2 728.793 1135.19 724.349 1142.18 722.641C1149.28 720.972 1157.8 722.194 1167.77 726.309L1182.57 732.422L1184.12 728.689C1186.35 723.329 1186.6 718.668 1184.88 714.705C1183.3 710.686 1179.82 707.569 1174.46 705.353C1170.14 703.573 1165.79 702.84 1161.39 703.155C1157.13 703.414 1153.11 704.724 1149.32 707.085L1146.25 697.067C1151.21 694.297 1156.48 692.828 1162.05 692.661C1167.66 692.398 1173.34 693.454 1179.09 695.828C1188.09 699.547 1194.12 704.617 1197.18 711.038C1200.24 717.458 1200.05 724.784 1196.63 733.016L1182.61 766.755C1181.06 770.488 1179.71 775.367 1178.55 781.394L1167.92 777.002C1167.97 774.444 1168.74 770.837 1170.22 766.18L1169.94 766.062C1165.7 768.687 1161.2 770.193 1156.44 770.581C1151.72 770.873 1146.96 770.03 1142.17 768.052ZM1148.04 759.204C1151.68 760.707 1155.31 761.422 1158.93 761.348C1162.59 761.179 1165.78 760.253 1168.5 758.573C1171.32 756.932 1173.32 754.675 1174.51 751.804L1178.93 741.18L1163.7 734.889C1157.66 732.396 1152.52 731.674 1148.27 732.721C1144.01 733.769 1140.97 736.494 1139.14 740.897C1137.55 744.726 1137.53 748.303 1139.06 751.629C1140.73 754.899 1143.73 757.424 1148.04 759.204Z"
        fill="#FFFCF5" fill-opacity="0.3"/>
    <path opacity="0.6"
          d="M1142.49 760.858C1136.92 755.581 1133.91 749.654 1133.45 743.078C1132.99 736.501 1135.19 730.663 1140.06 725.563C1145.43 719.939 1151.68 717.586 1158.83 718.505C1166.05 719.495 1173.57 723.698 1181.39 731.115L1193.01 742.133L1195.8 739.208C1199.81 735.009 1201.72 730.752 1201.54 726.437C1201.51 722.119 1199.38 717.963 1195.17 713.97C1191.79 710.761 1187.99 708.514 1183.77 707.229C1179.7 705.94 1175.47 705.716 1171.08 706.558L1171.81 696.109C1177.45 695.309 1182.89 695.831 1188.15 697.676C1193.49 699.445 1198.41 702.469 1202.92 706.748C1209.99 713.452 1213.8 720.347 1214.34 727.434C1214.89 734.521 1212.08 741.289 1205.93 747.738L1180.71 774.174C1177.92 777.099 1174.9 781.164 1171.65 786.369L1163.3 778.453C1164.27 776.087 1166.29 772.998 1169.35 769.188L1169.12 768.974C1164.23 769.902 1159.49 769.692 1154.9 768.343C1150.39 766.919 1146.25 764.424 1142.49 760.858ZM1151.14 754.712C1154 757.422 1157.14 759.393 1160.54 760.625C1164.02 761.782 1167.34 762.065 1170.48 761.474C1173.7 760.954 1176.38 759.569 1178.53 757.319L1186.47 748.995L1174.51 737.656C1169.77 733.163 1165.23 730.642 1160.88 730.092C1156.53 729.542 1152.72 730.992 1149.42 734.442C1146.56 737.442 1145.25 740.769 1145.49 744.423C1145.87 748.073 1147.76 751.503 1151.14 754.712Z"
          fill="#FFFCF5"/>
    <circle cx="52.6693" cy="52.6693" r="52.6693"
            transform="matrix(0.704996 0.709192 -0.711403 0.702804 1080.7 176.337)" fill="#FF446D"/>
    <path
        d="M1010.43 319.793C1048.71 358.297 1111.05 358.578 1149.67 320.421C1188.29 282.265 1188.57 220.12 1150.3 181.616"
        stroke="#FF446D" stroke-width="3.66888" stroke-dasharray="0.12 18.34"/>
    <path
        d="M1028.08 302.356C1056.7 331.141 1103.3 331.351 1132.18 302.825C1161.05 274.299 1161.26 227.84 1132.65 199.055"
        stroke="#FFA5B8" stroke-width="3.66888" stroke-dasharray="0.12 6.11"/>
    <path fill-rule="evenodd" clip-rule="evenodd"
          d="M1066.92 271.467C1066.93 270.128 1068.02 269.047 1069.37 269.053L1089.64 269.144C1090.98 269.15 1092.07 270.241 1092.06 271.581C1092.06 272.92 1090.96 274.001 1089.62 273.995L1069.35 273.903C1068 273.897 1066.92 272.807 1066.92 271.467Z"
          fill="#EFF0F2"/>
    <path
        d="M1069.51 236.718C1069.54 230.914 1074.28 226.23 1080.1 226.257C1085.92 226.283 1090.62 231.009 1090.6 236.813L1090.56 244.897C1090.53 250.701 1085.79 255.385 1079.97 255.359C1074.15 255.332 1069.45 250.606 1069.48 244.802L1069.51 236.718Z"
        fill="#EFF0F2"/>
    <path fill-rule="evenodd" clip-rule="evenodd"
          d="M1060.09 249.154C1061.24 248.464 1062.73 248.835 1063.42 249.982C1066.82 255.605 1072.98 259.369 1080.03 259.401C1087.08 259.433 1093.27 255.724 1096.72 250.133C1097.42 248.991 1098.92 248.634 1100.06 249.334C1101.21 250.035 1101.57 251.528 1100.86 252.67C1096.57 259.645 1088.83 264.291 1080.01 264.251C1071.19 264.211 1063.49 259.496 1059.25 252.482C1058.56 251.334 1058.93 249.844 1060.09 249.154Z"
          fill="#EFF0F2"/>
    <path
        d="M1338.98 239.746L1339.08 217.733C1339.11 210.979 1333.66 205.479 1326.91 205.448L1239.73 205.055C1232.98 205.025 1227.48 210.475 1227.44 217.229L1226.88 341.97C1226.85 348.724 1232.3 354.224 1239.05 354.255L1326.23 354.648C1332.98 354.678 1338.48 349.228 1338.51 342.473L1338.84 270.931"
        stroke="white" stroke-width="2.44592" stroke-linecap="round"/>
    <ellipse cx="7.36064" cy="7.33775" rx="7.36064" ry="7.33775"
             transform="matrix(0.99999 0.00450956 -0.00453773 0.99999 1239.67 225.846)" fill="#FFE2E9"/>
    <path d="M1262.97 227.785L1310.82 228.001" stroke="#FFD5DE" stroke-width="3.66888" stroke-linecap="round"/>
    <path d="M1262.92 238.181L1291.14 238.308" stroke="#FFD5DE" stroke-width="3.66888" stroke-linecap="round"/>
    <ellipse cx="7.36064" cy="7.33775" rx="7.36064" ry="7.33775"
             transform="matrix(0.99999 0.00450956 -0.00453773 0.99999 1239.51 261.311)" fill="#FFE2E9"/>
    <path d="M1262.81 263.25L1310.66 263.466" stroke="#FFD5DE" stroke-width="3.66888" stroke-linecap="round"/>
    <path d="M1262.76 273.646L1290.98 273.773" stroke="#FFD5DE" stroke-width="3.66888" stroke-linecap="round"/>
    <ellipse cx="7.36064" cy="7.33775" rx="7.36064" ry="7.33775"
             transform="matrix(0.99999 0.00450956 -0.00453773 0.99999 1239.35 296.776)" fill="#FFE2E9"/>
    <path d="M1262.65 298.716L1310.49 298.932" stroke="#FFD5DE" stroke-width="3.66888" stroke-linecap="round"/>
    <path d="M1262.6 309.111L1290.82 309.239" stroke="#FFD5DE" stroke-width="3.66888" stroke-linecap="round"/>
    <path d="M125.011 242.224L124.648 194.654" stroke="#FF2151" stroke-width="4" stroke-linecap="round"/>
    <path d="M284.566 213.04L284.212 259.64" stroke="#FF2151" stroke-width="4" stroke-linecap="round"/>
    <path d="M147.78 165.902L187.89 142.277" stroke="#FF2151" stroke-width="4" stroke-linecap="round"/>
    <path d="M261.797 289.361L220.97 312.016" stroke="#FF2151" stroke-width="4" stroke-linecap="round"/>
    <path d="M229.103 148.185L269.618 171.377" stroke="white" stroke-width="4" stroke-linecap="round"/>
    <path d="M180.474 307.079L140.216 283.888" stroke="#FF2151" stroke-width="4" stroke-linecap="round"/>
    <path
        d="M136.023 183.854C136.023 189.907 131.099 194.825 125.011 194.825C118.924 194.825 114 189.907 114 183.854C114 177.801 118.924 172.883 125.011 172.883C131.099 172.883 136.023 177.801 136.023 183.854Z"
        stroke="#FF2151" stroke-width="4"/>
    <path
        d="M273.554 271.408C273.554 265.355 278.478 260.437 284.565 260.437C290.653 260.437 295.577 265.355 295.577 271.408C295.577 277.461 290.653 282.379 284.565 282.379C278.478 282.379 273.554 277.461 273.554 271.408Z"
        stroke="#FF2151" stroke-width="4"/>
    <path
        d="M203.985 146.221C198.717 149.253 191.985 147.452 188.947 142.206C185.909 136.961 187.71 130.248 192.978 127.216C198.247 124.184 204.978 125.985 208.016 131.231C211.054 136.476 209.253 143.189 203.985 146.221Z"
        stroke="#FF2151" stroke-width="4"/>
    <path
        d="M205.592 309.043C210.86 306.01 217.592 307.812 220.63 313.057C223.668 318.303 221.867 325.015 216.598 328.048C211.33 331.08 204.598 329.278 201.56 324.033C198.522 318.787 200.323 312.075 205.592 309.043Z"
        stroke="#FF2151" stroke-width="4"/>
    <path
        d="M274.299 186.868C269.031 183.836 267.23 177.124 270.268 171.878C273.306 166.633 280.038 164.831 285.306 167.863C290.575 170.896 292.376 177.608 289.338 182.854C286.3 188.099 279.568 189.901 274.299 186.868Z"
        stroke="white" stroke-width="4"/>
    <path
        d="M135.277 268.396C140.546 271.429 142.347 278.141 139.309 283.387C136.271 288.632 129.539 290.434 124.271 287.401C119.002 284.369 117.201 277.657 120.239 272.411C123.277 267.165 130.009 265.364 135.277 268.396Z"
        stroke="#FF2151" stroke-width="4"/>
    <path d="M206.334 177.369L160.794 203.311V255.195L206.334 281.137L250.248 255.195V203.311L206.334 177.369Z"
          fill="#FF2151"/>
    <path d="M530.849 843.485L619.119 720.047L703.711 776.266L794.433 683.382" stroke="white" stroke-width="2"
          stroke-linecap="round"/>
    <ellipse cx="616.667" cy="720.046" rx="14.7117" ry="14.666" fill="white"/>
    <ellipse cx="704.288" cy="774.972" rx="9.08665" ry="9.0584" fill="white"/>
    <ellipse cx="791.477" cy="683.38" rx="10.0242" ry="9.99299" fill="white"/>
    <ellipse cx="530.849" cy="843.196" rx="7.21162" ry="7.1892" fill="white"/>
    <path
        d="M1635.89 0C1631.43 18.1044 1629.07 37.0274 1629.07 56.5C1629.07 187.115 1735.29 293 1866.31 293C1886.57 293 1906.23 290.47 1924.99 285.709"
        stroke="#FF194C" stroke-width="3"/>
    <path
        d="M1717.72 0C1711 17.5503 1707.32 36.5967 1707.32 56.5C1707.32 144.037 1778.5 215 1866.31 215C1887.8 215 1908.3 210.749 1927 203.044"
        stroke="white" stroke-width="3"/>
    <path fill-rule="evenodd" clip-rule="evenodd"
          d="M1792.07 1H1922.99V129.745C1907.31 141.817 1887.65 149 1866.31 149C1815.07 149 1773.52 107.586 1773.52 56.5C1773.52 35.6763 1780.43 16.4597 1792.07 1Z"
          fill="#FF194C"/>
    <ellipse cx="1742.93" cy="254.5" rx="10.5327" ry="10.5" fill="#FF194C"/>
    <ellipse cx="1708.32" cy="81" rx="6.01871" ry="6" fill="white"/>
    <mask id="mask0_18270_7320" style="mask-type:alpha" maskUnits="userSpaceOnUse" x="-3" y="478" width="598"
          height="603">
        <rect x="-3" y="478" width="597.859" height="603" fill="#C4C4C4"/>
    </mask>
    <g mask="url(#mask0_18270_7320)">
        <path d="M506.362 921.183L83.0464 506L164.182 1039.05L506.362 921.183Z" fill="#F30237"/>
        <path d="M79.7046 1350L508.591 922.447L166.188 1035.05L79.7046 1350Z" fill="#F30237" fill-opacity="0.5"/>
        <path d="M-338.042 924.617L83.2772 511.553L164.368 1042.38L-338.042 924.617Z" fill="#F20237"
              fill-opacity="0.3"/>
        <path d="M166.596 1040.25L-334.7 925.779L81.8696 1346.67L166.596 1040.25Z" fill="#F30237"/>
        <path d="M83.2681 506L165.524 1034" stroke="#FF194C" stroke-width="3"/>
        <ellipse cx="166.025" cy="1039.5" rx="10.5327" ry="10.5" fill="#FF4971"/>
        <path d="M167.53 1040L504.578 922" stroke="#FF3764" stroke-width="3"/>
    </g>
    <defs>
        <linearGradient id="paint0_linear_18270_7320" x1="1138.05" y1="1025.5" x2="1541.67" y2="75.0937"
                        gradientUnits="userSpaceOnUse">
            <stop stop-color="#E20031"/>
            <stop offset="1" stop-color="#DE0635"/>
        </linearGradient>
    </defs>
</svg>
